<svg xmlns="http://www.w3.org/2000/svg" viewBox="0 0 835.25 835.1">
  <g id="Layer_2" data-name="Layer 2">
    <g id="Layer_5" data-name="Layer 5">
      <circle class="cls-1" cx="725.48" cy="725.33" r="101.78"/>
      <line class="cls-1" x1="286.66" y1="396.3" x2="623.7" y2="725.33"/>
      <line class="cls-1" x1="385.96" y1="295.4" x2="725.48" y2="623.55"/>
      <circle class="cls-1" cx="725.48" cy="725.33" r="61.84"/>
      <path class="cls-1" d="M209.4,8q-9.75,0-19.25.93c-4.37,6.88-8.65,13.82-12.69,20.9-3.54,6.22-6.9,12.54-9.92,19-.73,1.56-1.35,3.36-2.2,4.86.11-.19.2-.36.3-.52.89-1.86,2.56-4.54,0,0-.13.26-.23.5-.31.7-.93,2.38-1.77,4.78-2.58,7.2,35.36,30.75,67.61,64.93,102.12,96.63,15.41,14.15,22.08,35.2,23,55.5.94,20.91-9.26,40.55-23,55.51A58.92,58.92,0,0,1,239.61,285a59.17,59.17,0,0,1-30.25,6.76c-21,0-40.27-9-55.5-23C120.42,238,89.1,205,55,175q-6.49,3.21-12.92,6.56c-11.42,6-22.68,12.22-33.87,18.61C8.08,203.2,8,206.29,8,209.4,8,320.63,98.17,410.8,209.4,410.8s201.4-90.17,201.4-201.4S320.63,8,209.4,8Z"/>
    </g>
  </g>
</svg>
